<?xml version="1.0" encoding="iso-8859-1"?>
<!-- Generator: Adobe Illustrator 18.0.0, SVG Export Plug-In . SVG Version: 6.00 Build 0)  -->
<!DOCTYPE svg PUBLIC "-//W3C//DTD SVG 1.1//EN" "http://www.w3.org/Graphics/SVG/1.1/DTD/svg11.dtd">
<svg version="1.1" id="Capa_1" fill="#BDBDBD" width="40px" height="40px" xmlns="http://www.w3.org/2000/svg" xmlns:xlink="http://www.w3.org/1999/xlink" x="0px" y="0px"
	 viewBox="0 0 202.932 202.932" style="enable-background:new 0 0 202.932 202.932;" xml:space="preserve">
<path d="M147.654,53.795c-5.921,0-11.324,2.26-15.392,5.961c-4.068-3.701-9.471-5.961-15.391-5.961
	c-5.926,0-11.334,2.261-15.405,5.963c-4.068-3.702-9.471-5.963-15.392-5.963c-2.772,0-5.43,0.495-7.891,1.401V22.902
	C78.184,10.274,67.914,0,55.291,0c-12.63,0-22.906,10.274-22.906,22.902v110.957c0,38.087,30.988,69.072,69.078,69.072
	c38.093,0,69.084-30.985,69.084-69.072V76.688C170.547,64.064,160.277,53.795,147.654,53.795z M155.547,133.859
	c0,29.815-24.262,54.072-54.084,54.072c-29.819,0-54.078-24.257-54.078-54.072V22.902c0-4.357,3.547-7.902,7.906-7.902
	c4.352,0,7.893,3.545,7.893,7.902v53.785v16.451c0,4.142,3.358,7.5,7.5,7.5c4.142,0,7.5-3.358,7.5-7.5V76.688
	c0-4.352,3.539-7.893,7.891-7.893c4.35,0,7.889,3.541,7.889,7.893v16.451c0,4.142,3.358,7.5,7.5,7.5c4.142,0,7.5-3.358,7.5-7.5
	V76.688c0-4.352,3.548-7.893,7.908-7.893c4.351,0,7.891,3.541,7.891,7.893v16.451c0,4.142,3.358,7.5,7.5,7.5
	c4.142,0,7.5-3.358,7.5-7.5V76.688c0-4.352,3.54-7.893,7.893-7.893c4.352,0,7.893,3.541,7.893,7.893V133.859z"/>
<g>
</g>
<g>
</g>
<g>
</g>
<g>
</g>
<g>
</g>
<g>
</g>
<g>
</g>
<g>
</g>
<g>
</g>
<g>
</g>
<g>
</g>
<g>
</g>
<g>
</g>
<g>
</g>
<g>
</g>
</svg>
